<?xml version="1.0" standalone="no"?>
<!DOCTYPE svg PUBLIC "-//W3C//DTD SVG 20010904//EN"
 "http://www.w3.org/TR/2001/REC-SVG-20010904/DTD/svg10.dtd">
<svg version="1.0" xmlns="http://www.w3.org/2000/svg"
 width="2473.000000pt" height="469.000000pt" viewBox="0 0 2473.000000 469.000000"
 preserveAspectRatio="xMidYMid meet">

<g transform="translate(0.000000,469.000000) scale(0.100000,-0.100000)"
fill="#000000" stroke="none">
<path d="M2065 4659 c-311 -64 -612 -154 -884 -264 -257 -104 -229 -84 -316
-219 -625 -963 -917 -2032 -856 -3126 6 -113 14 -219 17 -237 5 -28 25 -45
168 -141 410 -277 782 -462 1238 -617 l157 -54 29 37 c80 102 302 467 302 497
0 6 -37 26 -82 44 -176 71 -433 205 -424 220 3 4 30 27 60 50 l55 43 136 -57
c465 -194 925 -285 1432 -285 548 0 950 87 1524 327 l36 15 62 -48 c34 -26 58
-51 53 -56 -17 -17 -341 -176 -424 -208 -49 -18 -88 -37 -88 -42 0 -24 179
-322 275 -460 l55 -77 82 26 c316 96 736 286 1055 476 143 86 404 259 422 281
31 37 39 783 11 1041 -92 856 -350 1581 -826 2326 l-94 146 -132 56 c-336 141
-687 248 -1018 312 -47 8 -95 18 -108 21 -20 4 -30 -11 -104 -162 l-83 -166
-43 6 c-321 44 -831 54 -1117 23 -82 -9 -172 -19 -200 -22 l-50 -6 -80 163
c-44 89 -84 163 -90 164 -5 1 -73 -11 -150 -27z m170 -1957 c161 -59 288 -192
353 -374 23 -65 26 -87 26 -208 0 -121 -3 -144 -27 -217 -115 -343 -459 -499
-762 -346 -27 14 -85 60 -127 103 -197 196 -242 487 -117 747 45 93 130 192
210 243 27 18 82 43 122 56 93 31 229 29 322 -4z m2010 13 c175 -46 328 -192
392 -375 38 -110 44 -284 14 -395 -125 -454 -619 -599 -920 -270 -124 136
-187 334 -162 515 49 369 357 608 676 525z"/>
<path d="M11693 3835 c-75 -20 -129 -50 -183 -101 -150 -140 -154 -363 -8
-507 235 -232 658 -122 718 188 52 268 -237 498 -527 420z"/>
<path d="M23898 3333 l-3 -438 -22 47 c-57 124 -160 251 -259 319 -65 44 -177
93 -264 115 -108 27 -393 27 -500 0 -329 -84 -568 -310 -680 -643 -73 -219
-81 -521 -19 -765 90 -359 355 -626 688 -693 118 -24 391 -16 506 15 217 58
394 191 496 371 62 108 58 115 59 -123 l0 -218 415 0 415 0 0 1225 0 1225
-415 0 -415 0 -2 -437z m-318 -584 c65 -14 139 -55 189 -102 92 -89 126 -175
125 -317 -1 -114 -25 -187 -85 -267 -176 -234 -595 -226 -760 14 -51 74 -71
146 -71 253 0 71 5 110 20 152 80 221 308 326 582 267z"/>
<path d="M8310 2515 l0 -1197 738 5 c611 3 756 7 847 20 250 37 386 76 560
161 311 152 514 381 605 685 19 62 21 79 11 106 -15 43 -14 52 10 86 17 25 20
38 14 75 -5 33 -1 58 14 99 l21 55 -25 55 c-13 30 -21 55 -17 55 4 0 9 14 10
30 1 17 -2 30 -6 30 -5 0 -15 26 -22 58 -27 124 -105 283 -191 393 -154 194
-400 341 -689 413 -226 55 -271 58 -1107 63 l-773 5 0 -1197z m1500 556 c103
-31 164 -66 232 -133 101 -100 151 -239 151 -413 -2 -266 -134 -463 -368 -548
-106 -38 -192 -47 -439 -47 l-226 0 0 586 0 586 288 -5 c259 -4 294 -6 362
-26z"/>
<path d="M13445 3393 c-79 -7 -255 -44 -332 -69 -255 -86 -429 -241 -479 -428
-18 -66 -18 -236 0 -302 37 -140 131 -249 284 -327 122 -63 222 -95 519 -161
139 -31 271 -63 295 -72 53 -19 84 -47 99 -92 10 -29 9 -38 -8 -61 -58 -79
-225 -98 -503 -55 -246 38 -532 140 -673 240 l-47 34 2 -286 3 -286 80 -44
c270 -148 603 -224 980 -224 290 0 476 32 643 110 166 78 275 177 337 305 40
83 55 159 55 269 -1 259 -114 428 -354 529 -108 45 -180 63 -446 112 -276 50
-372 76 -406 110 -50 50 -17 111 76 139 115 34 350 30 550 -10 108 -22 294
-86 389 -133 l81 -41 0 270 0 270 -92 44 c-160 76 -370 133 -570 155 -89 10
-389 12 -483 4z"/>
<path d="M16010 3394 c-399 -48 -697 -192 -885 -429 -69 -87 -148 -244 -176
-350 -30 -113 -38 -365 -15 -488 61 -325 250 -569 561 -724 139 -70 286 -111
467 -134 150 -18 497 -7 623 21 141 30 295 83 400 138 l90 47 3 303 c1 167 -1
302 -5 300 -5 -2 -30 -15 -58 -29 -194 -103 -472 -154 -696 -130 -261 28 -426
117 -501 268 -27 56 -32 75 -32 143 0 68 5 87 32 143 40 81 109 145 206 192
93 44 166 62 308 77 223 23 428 -15 631 -116 l107 -54 -2 311 -3 311 -49 29
c-110 64 -276 121 -447 153 -81 15 -475 28 -559 18z"/>
<path d="M18405 3394 c-150 -21 -246 -41 -335 -70 -376 -121 -631 -373 -721
-714 -30 -116 -37 -329 -15 -456 21 -124 67 -246 132 -354 30 -49 54 -96 54
-104 0 -7 -11 -17 -25 -20 -22 -6 -23 -9 -13 -30 7 -18 31 -32 81 -51 38 -14
72 -23 74 -21 3 3 37 -20 77 -50 106 -83 307 -178 446 -213 177 -45 283 -54
523 -48 234 6 335 22 494 78 302 107 514 290 638 552 77 162 89 221 89 447 1
173 -2 205 -22 279 -108 397 -435 666 -919 757 -84 15 -483 29 -558 18z m389
-645 c72 -25 98 -41 159 -98 137 -129 167 -364 71 -552 -69 -138 -221 -219
-409 -219 -148 0 -257 43 -346 137 -62 66 -95 136 -111 236 -22 146 17 290
106 385 71 76 150 112 296 136 48 8 175 -6 234 -25z"/>
<path d="M21524 3346 c-101 -23 -172 -64 -250 -141 -56 -57 -80 -91 -122 -175
-28 -58 -61 -141 -73 -185 -12 -44 -25 -91 -29 -105 -5 -14 -9 107 -9 273 l-1
297 -410 0 -410 0 0 -995 0 -995 419 0 420 0 3 413 c4 384 6 417 26 489 58
212 173 333 362 384 137 37 344 18 461 -41 l49 -24 0 369 0 370 -37 19 c-103
52 -283 73 -399 47z"/>
<path d="M11386 2773 c-5 -62 -10 -106 -14 -125 -1 -5 -15 -8 -32 -8 l-30 0 0
-109 0 -110 30 -21 c22 -15 30 -30 30 -51 0 -16 5 -29 10 -29 7 0 10 -175 10
-505 l0 -505 420 0 420 0 0 765 c0 421 -4 765 -8 765 -5 0 -35 -9 -68 -20
-204 -71 -429 -76 -641 -14 -48 15 -95 28 -104 31 -14 4 -18 -7 -23 -64z"/>
</g>
</svg>
